<mxfile host="app.diagrams.net" modified="2024-06-07T22:13:07.589Z" agent="Mozilla/5.0 (Macintosh; Intel Mac OS X 10_15_7) AppleWebKit/537.36 (KHTML, like Gecko) Chrome/124.0.0.0 Safari/537.36" version="24.5.2" etag="f_MVIgt-6BOX7ufzFbcK" type="github">
  <diagram name="Page-1" id="MwDVBTW8OjxGAXUZfVx5">
    <mxGraphModel>
      <root>
        <mxCell id="0" />
        <mxCell id="1" parent="0" />
      </root>
    </mxGraphModel>
  </diagram>
</mxfile>
